<svg xmlns="http://www.w3.org/2000/svg" width="720" height="340" viewBox="0 0 720 340">
<defs>
 <linearGradient id="b" x1="0" y1="0" x2="1" y2="1"><stop stop-color="#22d3ee"/><stop offset="1" stop-color="#2563eb"/></linearGradient>
 <linearGradient id="g" x1="0" y1="0" x2="1" y2="1"><stop stop-color="#34d399"/><stop offset="1" stop-color="#16a34a"/></linearGradient>
 <linearGradient id="o" x1="0" y1="0" x2="1" y2="1"><stop stop-color="#fbbf24"/><stop offset="1" stop-color="#f97316"/></linearGradient>
 <linearGradient id="p" x1="0" y1="0" x2="1" y2="1"><stop stop-color="#c084fc"/><stop offset="1" stop-color="#ec4899"/></linearGradient>
 <filter id="s"><feDropShadow dx="0" dy="4" stdDeviation="3" flood-opacity=".22"/></filter>
</defs>
<g transform="translate(0 0)"><rect width="180" height="170" rx="20" fill="url(#b)"/><circle cx="90" cy="52" r="28" fill="#f9a8d4" stroke="#db2777" stroke-width="4" filter="url(#s)"/><circle cx="80" cy="49" r="5" fill="#fff"/><circle cx="100" cy="49" r="5" fill="#fff"/><path d="M80 62q10 10 20 0" fill="none" stroke="#7c2d12" stroke-width="4" stroke-linecap="round"/><g filter="url(#s)"><rect x="20" y="88" width="42" height="34" rx="8" fill="#facc15"/><rect x="69" y="88" width="42" height="34" rx="8" fill="#4ade80"/><rect x="118" y="88" width="42" height="34" rx="8" fill="#60a5fa"/></g><text x="41" y="112" text-anchor="middle" font-size="21" font-weight="900" fill="#fff">1</text><text x="90" y="112" text-anchor="middle" font-size="21" font-weight="900" fill="#fff">3</text><text x="139" y="112" text-anchor="middle" font-size="20" font-weight="900" fill="#fff">★</text><rect x="42" y="132" width="42" height="24" rx="7" fill="#a855f7"/><rect x="93" y="132" width="42" height="24" rx="7" fill="#22c55e"/><text x="63" y="150" text-anchor="middle" font-size="15" font-weight="900" fill="#fff">5</text><text x="114" y="150" text-anchor="middle" font-size="15" font-weight="900" fill="#fff">3</text></g>
<g transform="translate(180 0)"><rect width="180" height="170" rx="20" fill="url(#o)"/><path d="M0 125h180v45H0z" fill="#f97316"/><path d="M0 145h180M30 125l20 45M100 125l20 45" stroke="#fed7aa" stroke-width="5" opacity=".9"/><circle cx="91" cy="70" r="24" fill="#fde68a"/><path d="M75 102l-14 29M104 101l17 27M73 82l-18 10M108 82l18 8" stroke="#2563eb" stroke-width="11" stroke-linecap="round"/><path d="M77 68q14 15 28 0" fill="none" stroke="#7c2d12" stroke-width="3"/><rect x="20" y="30" width="34" height="34" rx="8" fill="#facc15" transform="rotate(-10 37 47)"/><rect x="127" y="28" width="34" height="34" rx="8" fill="#4ade80" transform="rotate(9 144 45)"/><text x="37" y="54" text-anchor="middle" font-size="20" font-weight="900" fill="#fff">5</text><text x="144" y="52" text-anchor="middle" font-size="20" font-weight="900" fill="#fff">8</text><text x="25" y="103" font-size="28" font-weight="900" fill="#ef4444">+</text><text x="145" y="105" font-size="25" font-weight="900" fill="#7c3aed">3</text><path d="M128 119l7 10 13-22" fill="none" stroke="#fef08a" stroke-width="6" stroke-linecap="round" stroke-linejoin="round"/></g>
<g transform="translate(360 0)"><rect width="180" height="170" rx="20" fill="#fef3c7"/><path d="M0 0h90v170H0z" fill="url(#g)"/><path d="M90 0h90v170H90z" fill="url(#o)"/><circle cx="45" cy="73" r="30" fill="#38bdf8" stroke="#fff" stroke-width="5" filter="url(#s)"/><text x="45" y="84" text-anchor="middle" font-size="38" font-weight="900" fill="#fff">8</text><circle cx="45" cy="120" r="14" fill="#22c55e" stroke="#fff" stroke-width="4"/><path d="M38 120l5 5 10-12" fill="none" stroke="#fff" stroke-width="4"/><circle cx="135" cy="73" r="30" fill="#ef4444" stroke="#fff" stroke-width="5" filter="url(#s)"/><text x="135" y="84" text-anchor="middle" font-size="38" font-weight="900" fill="#fff">7</text><circle cx="135" cy="120" r="14" fill="#ef4444" stroke="#fff" stroke-width="4"/><path d="M129 114l12 12M141 114l-12 12" stroke="#fff" stroke-width="4"/></g>
<g transform="translate(540 0)"><rect width="180" height="170" rx="20" fill="url(#b)"/><path d="M90 18v134M25 50l130 70M25 120l130-70" stroke="#fff" stroke-opacity=".18" stroke-width="7"/><rect x="28" y="65" width="38" height="52" rx="7" fill="#a855f7" stroke="#fff" stroke-width="3" transform="rotate(-14 47 91)"/><rect x="114" y="62" width="38" height="52" rx="7" fill="#22c55e" stroke="#fff" stroke-width="3" transform="rotate(14 133 88)"/><rect x="59" y="48" width="62" height="78" rx="9" fill="#fffdf5" stroke="#e5e7eb" stroke-width="3" filter="url(#s)"/><text x="90" y="100" text-anchor="middle" font-size="42" font-weight="900" fill="#2563eb">7</text><path d="M75 59l4 7 7 1-5 5 1 7-7-4-7 4 1-7-5-5 7-1z" fill="#facc15"/><path d="M112 59l4 7 7 1-5 5 1 7-7-4-7 4 1-7-5-5 7-1z" fill="#facc15"/></g>
<g transform="translate(0 170)"><rect width="180" height="170" rx="20" fill="#38bdf8"/><path d="M0 135q45-35 90 0t90 0v35H0z" fill="#86efac"/><g filter="url(#s)"><rect x="16" y="82" width="32" height="38" rx="7" fill="#60a5fa" transform="rotate(-8 32 101)"/><rect x="56" y="68" width="32" height="38" rx="7" fill="#4ade80"/><rect x="96" y="54" width="32" height="38" rx="7" fill="#facc15" transform="rotate(5 112 73)"/><rect x="136" y="40" width="32" height="38" rx="7" fill="#c084fc" transform="rotate(9 152 59)"/></g><g fill="none" stroke="#fff" stroke-width="4" stroke-linecap="round"><path d="M43 75l12-9"/><path d="M83 61l12-9"/><path d="M123 47l12-9"/></g><text x="32" y="108" text-anchor="middle" font-size="21" font-weight="900" fill="#fff">2</text><text x="72" y="94" text-anchor="middle" font-size="21" font-weight="900" fill="#fff">5</text><text x="112" y="80" text-anchor="middle" font-size="21" font-weight="900" fill="#fff">7</text><text x="152" y="66" text-anchor="middle" font-size="21" font-weight="900" fill="#fff">9</text></g>
<g transform="translate(180 170)"><rect width="180" height="170" rx="20" fill="#86efac"/><rect x="28" y="28" width="124" height="116" rx="12" fill="#b45309" filter="url(#s)"/><g stroke="#fef3c7" stroke-width="4"><rect x="39" y="39" width="31" height="27" rx="5" fill="#ef4444"/><rect x="75" y="39" width="31" height="27" rx="5" fill="#38bdf8"/><rect x="111" y="39" width="31" height="27" rx="5" fill="#facc15"/><rect x="39" y="71" width="31" height="27" rx="5" fill="#38bdf8"/><rect x="75" y="71" width="31" height="27" rx="5" fill="#92400e"/><rect x="111" y="71" width="31" height="27" rx="5" fill="#ef4444"/><rect x="39" y="103" width="31" height="27" rx="5" fill="#facc15"/><rect x="75" y="103" width="31" height="27" rx="5" fill="#4ade80"/><rect x="111" y="103" width="31" height="27" rx="5" fill="#38bdf8"/></g><text x="90" y="92" text-anchor="middle" font-size="24" font-weight="900" fill="#fff">?</text></g>
<g transform="translate(360 170)"><rect width="180" height="170" rx="20" fill="url(#g)"/><circle cx="40" cy="45" r="25" fill="#166534" opacity=".5"/><circle cx="145" cy="38" r="28" fill="#166534" opacity=".45"/><circle cx="75" cy="135" r="32" fill="#166534" opacity=".45"/><text x="35" y="53" font-size="24" font-weight="900" fill="#86efac">3</text><text x="139" y="47" font-size="25" font-weight="900" fill="#bbf7d0">7</text><text x="69" y="143" font-size="24" font-weight="900" fill="#86efac">2</text><circle cx="94" cy="91" r="42" fill="#2563eb" stroke="#fff" stroke-width="5" opacity=".95"/><circle cx="94" cy="91" r="30" fill="#4ade80" opacity=".75"/><text x="94" y="105" text-anchor="middle" font-size="36" font-weight="900" fill="#166534">5</text><path d="M124 121l30 27" stroke="#f59e0b" stroke-width="12" stroke-linecap="round"/></g>
<g transform="translate(540 170)"><rect width="180" height="170" rx="20" fill="url(#b)"/><g filter="url(#s)"><ellipse cx="87" cy="113" rx="43" ry="15" fill="#f59e0b" stroke="#fef08a" stroke-width="3"/><ellipse cx="92" cy="91" rx="43" ry="15" fill="#fbbf24" stroke="#fef08a" stroke-width="3"/><ellipse cx="83" cy="70" rx="39" ry="14" fill="#facc15" stroke="#fef08a" stroke-width="3"/></g><text x="83" y="80" text-anchor="middle" font-size="28" font-weight="900" fill="#fff">K</text><path d="M30 42l5 10 11 1-8 7 3 11-11-6-10 6 2-11-8-7 11-1z" fill="#fef08a"/><path d="M145 35l5 10 11 1-8 7 3 11-11-6-10 6 2-11-8-7 11-1z" fill="#fef08a"/></g>
</svg>